<svg width="91" height="91" viewBox="0 0 91 91" fill="none" xmlns="http://www.w3.org/2000/svg">
<path d="M91 45.5C91 70.629 70.629 91 45.5 91C20.371 91 0 70.629 0 45.5C0 20.371 20.371 0 45.5 0C70.629 0 91 20.371 91 45.5Z" fill="white"/>
<path fill-rule="evenodd" clip-rule="evenodd" d="M45.5 91C70.629 91 91 70.629 91 45.5C91 20.371 70.629 0 45.5 0C20.371 0 0 20.371 0 45.5C0 70.629 20.371 91 45.5 91ZM57.8988 65.4062C68.8927 65.4062 77.805 56.4939 77.805 45.5C77.805 34.5061 68.8927 25.5938 57.8988 25.5938H18.0863V65.4062H57.8988ZM62.8469 45.4719C62.8469 48.2204 60.6473 50.4485 57.8988 50.4485H32.9876V40.4953H57.8988C60.6473 40.4953 62.8469 42.7234 62.8469 45.4719Z" fill="black"/>
</svg>
