<svg width="1441" height="375" viewBox="0 0 1441 375" fill="none" xmlns="http://www.w3.org/2000/svg">
<mask id="mask0_2_465" style="mask-type:alpha" maskUnits="userSpaceOnUse" x="-91" y="0" width="1843" height="375">
<rect x="-90.5" width="1842" height="375" fill="#D9D9D9"/>
</mask>
<g mask="url(#mask0_2_465)">
<mask id="path-2-inside-1_2_465" fill="white">
<path fill-rule="evenodd" clip-rule="evenodd" d="M1095 -302C1174.51 -302 1245.6 -265.963 1292.84 -209.331C1310.38 -214.96 1329.09 -218 1348.5 -218C1449.02 -218 1530.5 -136.516 1530.5 -36C1530.5 64.5159 1449.02 146 1348.5 146C1324.78 146 1302.13 141.463 1281.35 133.211C1234.45 182.37 1168.3 213 1095 213C1043.35 213 995.247 197.792 954.932 171.608C937.185 194.329 909.532 208.936 878.468 208.936C841.769 208.936 809.832 188.55 793.364 158.484C779.015 163.445 763.607 166.141 747.57 166.141C740.846 166.141 734.232 165.667 727.76 164.75C695.635 220.483 635.449 257.999 566.5 257.999C493.6 257.999 430.495 216.06 399.997 154.992C394.31 155.784 388.501 156.193 382.596 156.193C351.349 156.193 322.777 144.736 300.853 125.794C279.169 161.866 239.653 186 194.5 186C130.413 186 77.6821 137.383 71.1753 75.0191C20.5541 71.7766 -19.5 29.6919 -19.5 -21.748C-19.5 -75.302 23.9141 -118.716 77.4681 -118.716C117.842 -118.716 152.453 -94.0415 167.044 -58.9495C175.875 -60.9459 185.065 -61.9998 194.5 -61.9998C225.143 -61.9998 253.19 -50.8845 274.829 -32.466C296.599 -69.2972 336.713 -93.9997 382.596 -93.9997C407.799 -93.9997 431.262 -86.5465 450.899 -73.7241C482.642 -98.9388 522.812 -114.001 566.5 -114.001C602.278 -114.001 635.696 -103.899 664.059 -86.3929C687.377 -103.737 716.275 -114 747.57 -114C782.909 -114 815.191 -100.914 839.835 -79.3224C856.834 -205.066 964.597 -302 1095 -302Z"/>
</mask>
<path fill-rule="evenodd" clip-rule="evenodd" d="M1095 -302C1174.51 -302 1245.6 -265.963 1292.84 -209.331C1310.38 -214.96 1329.09 -218 1348.5 -218C1449.02 -218 1530.5 -136.516 1530.5 -36C1530.5 64.5159 1449.02 146 1348.5 146C1324.78 146 1302.13 141.463 1281.35 133.211C1234.45 182.37 1168.3 213 1095 213C1043.35 213 995.247 197.792 954.932 171.608C937.185 194.329 909.532 208.936 878.468 208.936C841.769 208.936 809.832 188.55 793.364 158.484C779.015 163.445 763.607 166.141 747.57 166.141C740.846 166.141 734.232 165.667 727.76 164.75C695.635 220.483 635.449 257.999 566.5 257.999C493.6 257.999 430.495 216.06 399.997 154.992C394.31 155.784 388.501 156.193 382.596 156.193C351.349 156.193 322.777 144.736 300.853 125.794C279.169 161.866 239.653 186 194.5 186C130.413 186 77.6821 137.383 71.1753 75.0191C20.5541 71.7766 -19.5 29.6919 -19.5 -21.748C-19.5 -75.302 23.9141 -118.716 77.4681 -118.716C117.842 -118.716 152.453 -94.0415 167.044 -58.9495C175.875 -60.9459 185.065 -61.9998 194.5 -61.9998C225.143 -61.9998 253.19 -50.8845 274.829 -32.466C296.599 -69.2972 336.713 -93.9997 382.596 -93.9997C407.799 -93.9997 431.262 -86.5465 450.899 -73.7241C482.642 -98.9388 522.812 -114.001 566.5 -114.001C602.278 -114.001 635.696 -103.899 664.059 -86.3929C687.377 -103.737 716.275 -114 747.57 -114C782.909 -114 815.191 -100.914 839.835 -79.3224C856.834 -205.066 964.597 -302 1095 -302Z" fill="#021C36"/>
<path d="M1292.84 -209.331L1290.54 -207.41L1291.83 -205.857L1293.76 -206.475L1292.84 -209.331ZM1095 -302V-299V-302ZM1348.5 -218V-221V-218ZM1348.5 146V143V146ZM1281.35 133.211L1282.46 130.423L1280.57 129.675L1279.18 131.14L1281.35 133.211ZM954.932 171.608L956.566 169.092L954.26 167.595L952.568 169.762L954.932 171.608ZM793.364 158.484L795.995 157.042L794.778 154.82L792.384 155.648L793.364 158.484ZM727.76 164.75L728.181 161.78L726.173 161.496L725.161 163.252L727.76 164.75ZM399.997 154.992L402.681 153.652L401.718 151.724L399.583 152.021L399.997 154.992ZM300.853 125.794L302.814 123.524L300.118 121.194L298.282 124.248L300.853 125.794ZM71.1753 75.0191L74.1591 74.7078L73.8961 72.1873L71.367 72.0253L71.1753 75.0191ZM-19.5 -21.748H-22.5H-19.5ZM77.4681 -118.716V-115.716V-118.716ZM167.044 -58.9495L164.273 -57.7978L165.243 -55.4667L167.705 -56.0233L167.044 -58.9495ZM274.829 -32.466L272.884 -30.1815L275.598 -27.8717L277.411 -30.9395L274.829 -32.466ZM450.899 -73.7241L449.259 -71.2121L451.071 -70.0291L452.765 -71.375L450.899 -73.7241ZM664.059 -86.3929L662.483 -83.84L664.215 -82.7706L665.849 -83.9857L664.059 -86.3929ZM839.835 -79.3223L837.858 -77.0659L842.059 -73.3847L842.808 -78.9204L839.835 -79.3223ZM1295.14 -211.253C1247.36 -268.539 1175.44 -305 1095 -305V-299C1173.58 -299 1243.85 -263.387 1290.54 -207.41L1295.14 -211.253ZM1348.5 -221C1328.77 -221 1309.76 -217.911 1291.92 -212.188L1293.76 -206.475C1311.01 -212.01 1329.4 -215 1348.5 -215V-221ZM1533.5 -35.9999C1533.5 -138.173 1450.67 -221 1348.5 -221V-215C1447.36 -215 1527.5 -134.859 1527.5 -35.9999H1533.5ZM1348.5 149C1450.67 149 1533.5 66.1727 1533.5 -35.9999H1527.5C1527.5 62.859 1447.36 143 1348.5 143V149ZM1280.24 135.999C1301.36 144.389 1324.4 149 1348.5 149V143C1325.17 143 1302.89 138.538 1282.46 130.423L1280.24 135.999ZM1095 216C1169.16 216 1236.08 185.01 1283.52 135.281L1279.18 131.14C1232.82 179.731 1167.45 210 1095 210V216ZM953.298 174.124C994.084 200.614 1042.75 216 1095 216V210C1043.94 210 996.409 194.969 956.566 169.092L953.298 174.124ZM878.468 211.936C910.495 211.936 939.005 196.872 957.296 173.455L952.568 169.762C935.365 191.786 908.57 205.936 878.468 205.936V211.936ZM790.733 159.925C807.706 190.913 840.63 211.936 878.468 211.936V205.936C842.909 205.936 811.958 186.186 795.995 157.042L790.733 159.925ZM747.57 169.141C763.945 169.141 779.684 166.388 794.345 161.319L792.384 155.648C778.345 160.503 763.269 163.141 747.57 163.141V169.141ZM727.339 167.721C733.95 168.657 740.705 169.141 747.57 169.141V163.141C740.987 163.141 734.513 162.677 728.181 161.78L727.339 167.721ZM566.5 260.999C636.565 260.999 697.721 222.872 730.359 166.249L725.161 163.252C693.55 218.094 634.333 254.999 566.5 254.999V260.999ZM397.313 156.333C428.299 218.378 492.419 260.999 566.5 260.999V254.999C494.78 254.999 432.69 213.742 402.681 153.652L397.313 156.333ZM382.596 159.193C388.64 159.193 394.587 158.774 400.41 157.964L399.583 152.021C394.033 152.793 388.362 153.193 382.596 153.193V159.193ZM298.892 128.064C321.34 147.459 350.602 159.193 382.596 159.193V153.193C352.096 153.193 324.214 142.013 302.814 123.524L298.892 128.064ZM194.5 189C240.749 189 281.221 164.277 303.424 127.34L298.282 124.248C277.118 159.456 238.557 183 194.5 183V189ZM68.1915 75.3304C74.8561 139.207 128.861 189 194.5 189V183C131.966 183 80.5081 135.56 74.1591 74.7078L68.1915 75.3304ZM-22.5 -21.748C-22.5 31.2845 18.7934 74.67 70.9835 78.013L71.367 72.0253C22.3148 68.8833 -16.5 28.0993 -16.5 -21.748H-22.5ZM77.4681 -121.716C22.2572 -121.716 -22.5 -76.9589 -22.5 -21.748H-16.5C-16.5 -73.6451 25.5709 -115.716 77.4681 -115.716V-121.716ZM169.814 -60.1013C154.774 -96.2731 119.096 -121.716 77.4681 -121.716V-115.716C116.588 -115.716 150.132 -91.8098 164.273 -57.7978L169.814 -60.1013ZM194.5 -64.9997C184.841 -64.9997 175.429 -63.9208 166.382 -61.8757L167.705 -56.0233C176.321 -57.971 185.289 -58.9997 194.5 -58.9997V-64.9997ZM276.773 -34.7505C254.612 -53.6135 225.882 -64.9997 194.5 -64.9997V-58.9997C224.404 -58.9997 251.768 -48.1556 272.884 -30.1815L276.773 -34.7505ZM382.596 -96.9997C335.609 -96.9997 294.534 -71.6992 272.246 -33.9926L277.411 -30.9395C298.664 -66.8953 337.817 -90.9997 382.596 -90.9997V-96.9997ZM452.54 -76.236C432.429 -89.3672 408.399 -96.9997 382.596 -96.9997V-90.9997C407.199 -90.9997 430.094 -83.7258 449.259 -71.2121L452.54 -76.236ZM566.5 -117.001C522.11 -117.001 481.287 -101.694 449.033 -76.0731L452.765 -71.375C483.996 -96.1834 523.514 -111.001 566.5 -111.001V-117.001ZM665.634 -88.9457C636.812 -106.736 602.85 -117.001 566.5 -117.001V-111.001C601.705 -111.001 634.58 -101.063 662.483 -83.84L665.634 -88.9457ZM747.57 -117C715.609 -117 686.087 -106.516 662.268 -88.8L665.849 -83.9857C688.668 -100.958 716.942 -111 747.57 -111V-117ZM841.812 -81.5788C816.642 -103.631 783.664 -117 747.57 -117V-111C782.154 -111 813.74 -98.1963 837.858 -77.0659L841.812 -81.5788ZM1095 -305C963.075 -305 854.059 -206.936 836.862 -79.7242L842.808 -78.9204C859.608 -203.196 966.118 -299 1095 -299V-305Z" fill="white" mask="url(#path-2-inside-1_2_465)"/>
</g>
</svg>
