<svg width="148" height="457" viewBox="0 0 148 457" fill="none" xmlns="http://www.w3.org/2000/svg">
<path d="M33.5995 32.7764C86.9186 81.9659 120.315 152.429 120.315 230.692C120.315 306.659 88.8493 375.277 38.2404 424.224" stroke="white" stroke-opacity="0.3" stroke-width="2"/>
<circle cx="35.5032" cy="34.957" r="34.5062" fill="#785E9E"/>
<circle cx="35.5032" cy="422.043" r="34.5062" fill="#021C36"/>
<circle cx="35.5032" cy="422.043" r="33.5062" stroke="white" stroke-opacity="0.3" stroke-width="2"/>
<circle cx="113.142" cy="160.289" r="34.5062" fill="#021C36"/>
<circle cx="113.142" cy="160.289" r="33.5062" stroke="white" stroke-opacity="0.3" stroke-width="2"/>
<path opacity="0.3" d="M107.805 170.931C107.122 170.931 106.621 170.782 106.301 170.483C106.002 170.163 105.853 169.705 105.853 169.107C105.853 168.745 105.949 168.393 106.141 168.051C106.333 167.71 106.61 167.347 106.973 166.963L113.405 160.115C114.386 159.091 115.09 158.163 115.517 157.331C115.943 156.478 116.157 155.625 116.157 154.771C116.157 153.705 115.815 152.894 115.133 152.339C114.471 151.785 113.501 151.507 112.221 151.507C111.495 151.507 110.77 151.614 110.045 151.827C109.319 152.019 108.583 152.361 107.837 152.851C107.453 153.107 107.09 153.214 106.749 153.171C106.429 153.129 106.141 152.99 105.885 152.755C105.65 152.521 105.49 152.233 105.405 151.891C105.319 151.55 105.33 151.209 105.437 150.867C105.565 150.505 105.821 150.195 106.205 149.939C107.122 149.321 108.146 148.851 109.277 148.531C110.429 148.211 111.581 148.051 112.733 148.051C114.354 148.051 115.719 148.297 116.829 148.787C117.938 149.278 118.781 149.993 119.357 150.931C119.933 151.87 120.221 153.011 120.221 154.355C120.221 155.251 120.071 156.126 119.773 156.979C119.495 157.833 119.058 158.697 118.461 159.571C117.885 160.446 117.127 161.374 116.189 162.355L110.173 168.627V167.539H119.581C120.157 167.539 120.594 167.678 120.893 167.955C121.191 168.233 121.341 168.649 121.341 169.203C121.341 169.758 121.191 170.185 120.893 170.483C120.594 170.782 120.157 170.931 119.581 170.931H107.805Z" fill="white"/>
<circle cx="113.142" cy="296.711" r="34.5062" fill="#021C36"/>
<circle cx="113.142" cy="296.711" r="33.5062" stroke="white" stroke-opacity="0.3" stroke-width="2"/>
<path opacity="0.3" d="M112.701 307.674C111.549 307.674 110.354 307.525 109.117 307.226C107.879 306.927 106.802 306.479 105.885 305.882C105.458 305.605 105.17 305.285 105.021 304.922C104.871 304.559 104.829 304.218 104.893 303.898C104.978 303.557 105.138 303.269 105.373 303.034C105.629 302.799 105.938 302.661 106.301 302.618C106.685 302.575 107.101 302.671 107.549 302.906C108.423 303.375 109.266 303.717 110.077 303.93C110.887 304.122 111.719 304.218 112.573 304.218C113.511 304.218 114.301 304.09 114.941 303.834C115.581 303.578 116.061 303.194 116.381 302.682C116.722 302.17 116.893 301.551 116.893 300.826C116.893 299.759 116.53 298.97 115.805 298.458C115.101 297.925 114.066 297.658 112.701 297.658H110.653C110.055 297.658 109.597 297.509 109.277 297.21C108.978 296.911 108.829 296.495 108.829 295.962C108.829 295.429 108.978 295.013 109.277 294.714C109.597 294.415 110.055 294.266 110.653 294.266H112.317C113.127 294.266 113.821 294.138 114.397 293.882C114.973 293.605 115.421 293.221 115.741 292.73C116.061 292.239 116.221 291.642 116.221 290.938C116.221 289.957 115.89 289.21 115.229 288.698C114.589 288.186 113.65 287.93 112.413 287.93C111.623 287.93 110.877 288.026 110.173 288.218C109.49 288.389 108.733 288.719 107.901 289.21C107.517 289.445 107.143 289.541 106.781 289.498C106.439 289.455 106.151 289.317 105.917 289.082C105.682 288.847 105.522 288.57 105.437 288.25C105.351 287.909 105.373 287.567 105.501 287.226C105.629 286.863 105.895 286.554 106.301 286.298C107.218 285.701 108.231 285.253 109.341 284.954C110.45 284.634 111.591 284.474 112.765 284.474C114.322 284.474 115.655 284.719 116.765 285.21C117.874 285.679 118.717 286.362 119.293 287.258C119.89 288.133 120.189 289.199 120.189 290.458C120.189 291.354 120.018 292.175 119.677 292.922C119.335 293.647 118.855 294.266 118.237 294.778C117.618 295.29 116.871 295.653 115.997 295.866V295.482C117.533 295.738 118.727 296.378 119.581 297.402C120.434 298.405 120.861 299.663 120.861 301.178C120.861 302.501 120.53 303.653 119.869 304.634C119.207 305.615 118.269 306.373 117.053 306.906C115.837 307.418 114.386 307.674 112.701 307.674Z" fill="white"/>
<path d="M30.9015 45.5996C30.3468 45.5996 29.9095 45.4503 29.5895 45.1516C29.2908 44.8316 29.1415 44.4049 29.1415 43.8716C29.1415 43.3169 29.2908 42.9009 29.5895 42.6236C29.9095 42.3463 30.3468 42.2076 30.9015 42.2076H34.4855V26.4956H36.4695L31.7655 29.3436C31.3601 29.5783 30.9761 29.6743 30.6135 29.6316C30.2721 29.5676 29.9735 29.4183 29.7175 29.1836C29.4828 28.9276 29.3228 28.6289 29.2375 28.2876C29.1521 27.9463 29.1735 27.6049 29.3015 27.2636C29.4508 26.9009 29.7281 26.6023 30.1335 26.3676L34.5495 23.7116C34.9761 23.4556 35.4028 23.2423 35.8295 23.0716C36.2561 22.8796 36.6508 22.7836 37.0135 22.7836C37.4615 22.7836 37.8348 22.9116 38.1335 23.1676C38.4321 23.4023 38.5815 23.7969 38.5815 24.3516V42.2076H41.8455C42.4001 42.2076 42.8268 42.3463 43.1255 42.6236C43.4455 42.9009 43.6055 43.3169 43.6055 43.8716C43.6055 44.4263 43.4455 44.8529 43.1255 45.1516C42.8268 45.4503 42.4001 45.5996 41.8455 45.5996H30.9015Z" fill="white"/>
<path opacity="0.3" d="M39.1255 432.867C38.4855 432.867 37.9841 432.697 37.6215 432.355C37.2588 431.993 37.0775 431.481 37.0775 430.819V428.323H29.1735C28.5121 428.323 27.9788 428.185 27.5735 427.907C27.1895 427.63 26.9975 427.193 26.9975 426.595C26.9975 426.254 27.0828 425.881 27.2535 425.475C27.4455 425.07 27.7761 424.537 28.2455 423.875L37.0135 411.171C37.3121 410.723 37.6428 410.382 38.0055 410.147C38.3681 409.913 38.7841 409.795 39.2535 409.795C39.8081 409.795 40.2668 409.966 40.6295 410.307C40.9921 410.627 41.1735 411.139 41.1735 411.843V424.931H42.7415C43.3601 424.931 43.8188 425.081 44.1175 425.379C44.4375 425.657 44.5975 426.073 44.5975 426.627C44.5975 427.182 44.4375 427.609 44.1175 427.907C43.8188 428.185 43.3601 428.323 42.7415 428.323H41.1735V430.819C41.1735 431.481 40.9921 431.993 40.6295 432.355C40.2668 432.697 39.7655 432.867 39.1255 432.867ZM37.0775 424.931V414.947H38.0055L30.4535 426.019V424.931H37.0775Z" fill="white"/>
</svg>
