<svg width="18" height="22" viewBox="0 0 18 22" fill="none" xmlns="http://www.w3.org/2000/svg">
<g clip-path="url(#clip0_502_1461)">
<path d="M11.433 9.54694L10.7157 10.1529L11.5669 10.5492C12.8621 11.1523 13.9659 12.1319 14.7436 13.3739C15.5212 14.6157 15.9388 16.066 15.9442 17.551C15.9438 18.7135 15.1379 19.5846 13.6911 20.1946C12.2517 20.8016 10.3387 21.0667 8.54057 21.0667V21.0666L8.52868 21.0668C6.85146 21.1 5.18067 20.8381 3.58702 20.2917C2.43205 19.8455 1.82542 19.296 1.5027 18.8162C1.17839 18.3341 1.10739 17.8727 1.10739 17.55C1.10738 16.0691 1.51815 14.6211 2.28846 13.3793C3.05864 12.1376 4.15477 11.1558 5.44328 10.5479L6.28779 10.1495L5.57449 9.54694C4.82798 8.9163 4.28465 8.05831 4.02306 7.0888C3.76144 6.11916 3.79546 5.08886 4.12011 4.14053C4.4447 3.19238 5.0427 2.37572 5.82813 1.80012C6.61322 1.22476 7.54789 0.917627 8.50373 0.917627C9.45956 0.917627 10.3942 1.22475 11.1793 1.80012C11.9647 2.37572 12.5627 3.19238 12.8873 4.14053C13.2119 5.08886 13.246 6.11916 12.9844 7.0888C12.7228 8.05832 12.1795 8.91631 11.433 9.54694ZM8.49484 2.02126L7.89635 2.02277V2.0826C7.15024 2.21407 6.45889 2.58247 5.92143 3.1405C5.24362 3.84424 4.86455 4.79275 4.85997 5.77869H4.85997V5.78148C4.85997 6.52065 5.07108 7.24494 5.46899 7.86283C5.86704 8.48094 6.4351 8.96604 7.10392 9.25318C7.77302 9.54044 8.51055 9.61553 9.22214 9.46787C9.93355 9.32025 10.5836 8.95742 11.0913 8.42905C11.5987 7.90091 11.9414 7.23103 12.0793 6.50532C12.2172 5.7797 12.1449 5.02765 11.8706 4.34348C11.5961 3.65914 11.1309 3.07114 10.5303 2.65641C9.92941 2.24146 9.22102 2.01944 8.49484 2.02126ZM7.89635 19.9613V19.9788H8.49635C10.363 19.9788 11.8831 19.7056 12.9574 19.3152C13.4917 19.1211 13.9405 18.889 14.2681 18.6275C14.5688 18.3875 14.8836 18.0274 14.889 17.5622C14.9182 16.6802 14.7766 15.8007 14.4721 14.9756C14.1666 14.1478 13.703 13.391 13.108 12.7508C12.5129 12.1105 11.7985 11.5999 11.0065 11.2507C10.2145 10.9015 9.362 10.7212 8.50004 10.7212C7.63808 10.7212 6.78552 10.9015 5.99351 11.2507C5.20158 11.5999 4.48711 12.1105 3.89205 12.7508C3.29703 13.391 2.83348 14.1478 2.52796 14.9756C2.22341 15.8008 2.0818 16.6803 2.11104 17.5623C2.11661 18.0304 2.43931 18.3896 2.73908 18.6256C3.06829 18.8847 3.51873 19.1155 4.05379 19.3089C5.01097 19.6549 6.31771 19.9094 7.89635 19.9613Z" fill="white" stroke="white" stroke-width="1.2"/>
</g>
<defs>
<clipPath id="clip0_502_1461">
<rect width="17" height="22" fill="white" transform="translate(0.5)"/>
</clipPath>
</defs>
</svg>
