<svg width="21" height="21" viewBox="0 0 21 21" fill="none" xmlns="http://www.w3.org/2000/svg">
<path d="M19.1999 18.37L13.3613 12.4423C14.531 11.1428 15.1739 9.44247 15.1612 7.68206C15.1484 5.92165 14.4809 4.23115 13.2924 2.94923C12.104 1.66731 10.4823 0.888651 8.75228 0.769256C7.02228 0.649862 5.31175 1.19855 3.96334 2.30539C2.61494 3.41223 1.72825 4.99547 1.48095 6.73793C1.23365 8.48039 1.64398 10.2534 2.62975 11.7017C3.61551 13.15 5.1039 14.1666 6.79672 14.548C8.48955 14.9293 10.2618 14.6471 11.7584 13.758L17.747 19.838C17.94 20.033 18.2012 20.1424 18.4735 20.1424C18.7457 20.1424 19.0069 20.033 19.1999 19.838C19.3898 19.6424 19.4963 19.3787 19.4963 19.104C19.4963 18.8293 19.3898 18.5656 19.1999 18.37ZM3.51211 7.78881C3.51211 6.83008 3.79211 5.89288 4.31674 5.09572C4.84138 4.29857 5.58704 3.67728 6.45947 3.31039C7.33191 2.9435 8.29192 2.8475 9.21809 3.03454C10.1443 3.22158 10.995 3.68324 11.6627 4.36116C12.3305 5.03908 12.7852 5.90282 12.9694 6.84313C13.1537 7.78343 13.0591 8.75807 12.6977 9.64382C12.3364 10.5296 11.7244 11.2866 10.9392 11.8193C10.1541 12.3519 9.23096 12.6362 8.28664 12.6362C7.02628 12.6271 5.82058 12.1123 4.93255 11.2043C4.04451 10.2962 3.54617 9.06844 3.5462 7.78881H3.51211Z" fill="white" stroke="white" stroke-width="0.5"/>
</svg>
