<svg width="22" height="22" viewBox="0 0 22 22" fill="none" xmlns="http://www.w3.org/2000/svg">
<g clip-path="url(#clip0_502_1467)">
<path d="M8.49008 16.0537C7.91528 16.0537 7.35339 16.2281 6.87547 16.5548C6.39754 16.8815 6.02504 17.3458 5.80507 17.8891C5.58511 18.4324 5.52757 19.0302 5.63971 19.6069C5.75185 20.1837 6.02865 20.7135 6.43509 21.1293C6.84153 21.5451 7.35934 21.8282 7.92309 21.943C8.48684 22.0577 9.07121 21.9988 9.60225 21.7738C10.1333 21.5487 10.5872 21.1677 10.9065 20.6787C11.2259 20.1898 11.3963 19.615 11.3963 19.0269C11.3942 18.239 11.0873 17.484 10.5428 16.9269C9.9982 16.3698 9.2602 16.0559 8.49008 16.0537ZM8.49008 19.5429C8.39032 19.5429 8.29278 19.5126 8.20983 19.4559C8.12689 19.3992 8.06227 19.3187 8.0241 19.2244C7.98592 19.1301 7.9759 19.0263 7.99536 18.9262C8.01483 18.8261 8.06287 18.7342 8.13341 18.662C8.20395 18.5899 8.29382 18.5407 8.39166 18.5208C8.4895 18.5009 8.59093 18.5111 8.68309 18.5502C8.77526 18.5892 8.85402 18.6554 8.90944 18.7402C8.96486 18.8251 8.99446 18.9249 8.99446 19.0269C8.99446 19.1638 8.94134 19.295 8.84674 19.3918C8.75215 19.4885 8.62385 19.5429 8.49008 19.5429Z" fill="white"/>
<path d="M18.0013 16.0537C17.427 16.0618 16.8678 16.2439 16.3945 16.5769C15.9213 16.91 15.555 17.379 15.3422 17.9249C15.1293 18.4707 15.0794 19.0688 15.1986 19.6437C15.3179 20.2186 15.6009 20.7444 16.0121 21.1548C16.4233 21.5652 16.9442 21.8417 17.5089 21.9494C18.0736 22.0571 18.6568 21.9912 19.1849 21.76C19.713 21.5288 20.1623 21.1427 20.476 20.6504C20.7898 20.1581 20.9539 19.5817 20.9476 18.9941C20.937 18.2048 20.6209 17.452 20.0686 16.9008C19.5163 16.3495 18.7729 16.0449 18.0013 16.0537ZM18.0013 19.5429C17.8676 19.5429 17.7393 19.4885 17.6447 19.3917C17.5501 19.2949 17.497 19.1637 17.497 19.0268C17.497 18.89 17.5501 18.7587 17.6447 18.662C17.7393 18.5652 17.8676 18.5108 18.0013 18.5108C18.1351 18.5108 18.2634 18.5652 18.358 18.662C18.4526 18.7587 18.5057 18.89 18.5057 19.0268C18.5057 19.1637 18.4526 19.2949 18.358 19.3917C18.2634 19.4885 18.1351 19.5429 18.0013 19.5429Z" fill="white"/>
<path d="M20.6273 5.35667C20.3165 5.01108 19.939 4.73513 19.5187 4.54623C19.0985 4.35733 18.6445 4.25957 18.1854 4.25913H6.88083V1.22859C6.88083 0.90275 6.75431 0.590245 6.5291 0.359839C6.30388 0.129433 5.99842 0 5.67992 0H1.67687C1.35836 0 1.0529 0.129433 0.827685 0.359839C0.60247 0.590245 0.475952 0.90275 0.475952 1.22859C0.475952 1.55444 0.60247 1.86694 0.827685 2.09735C1.0529 2.32775 1.35836 2.45719 1.67687 2.45719H4.45501V5.3157C4.45501 5.3157 4.45501 5.36487 4.45501 5.38944C4.44304 5.48735 4.44304 5.58638 4.45501 5.68429L5.51979 12.376C5.62281 13.1926 6.01272 13.9428 6.61672 14.4869C7.22071 15.031 7.99756 15.3317 8.80232 15.3328H17.609C18.4341 15.3383 19.2311 15.0265 19.842 14.4591C20.453 13.8917 20.8333 13.1103 20.9075 12.2696L21.4119 7.94491C21.4602 7.48158 21.4155 7.01304 21.2806 6.56799C21.1457 6.12295 20.9233 5.71076 20.6273 5.35667ZM18.5938 12.0156C18.5663 12.2429 18.4581 12.4519 18.2898 12.6029C18.1215 12.754 17.9049 12.8364 17.6811 12.8347H8.87434C8.65237 12.8327 8.43856 12.7487 8.27232 12.5982C8.10608 12.4477 7.9986 12.2408 7.96965 12.0156L7.16904 6.70812H18.2575C18.3808 6.708 18.5029 6.73344 18.6163 6.7829C18.7297 6.83237 18.8321 6.90483 18.9174 6.99592C19.0027 7.08701 19.0691 7.19484 19.1126 7.31289C19.156 7.43095 19.1756 7.55678 19.1702 7.6828L18.5938 12.0156Z" fill="white"/>
</g>
<defs>
<clipPath id="clip0_502_1467">
<rect width="21" height="22" fill="white" transform="translate(0.5)"/>
</clipPath>
</defs>
</svg>
