<svg width="166" height="33" viewBox="0 0 166 33" fill="none" xmlns="http://www.w3.org/2000/svg">
<path d="M15.1623 3.5048C15.9038 2.04709 17.9862 2.04709 18.7277 3.5048L21.413 8.78432C21.7031 9.35467 22.2486 9.75178 22.8805 9.85261L28.7255 10.7853C30.3361 11.0423 30.9784 13.0154 29.8278 14.1713L25.6373 18.3812C25.1874 18.8332 24.98 19.4727 25.079 20.1028L26.0019 25.9733C26.2556 27.5872 24.5721 28.808 23.1169 28.0653L17.8542 25.3791C17.2831 25.0876 16.6069 25.0876 16.0358 25.3791L10.7731 28.0653C9.31795 28.808 7.63439 27.5872 7.8881 25.9733L8.81096 20.1028C8.91 19.4727 8.70263 18.8332 8.2527 18.3812L4.06217 14.1713C2.91157 13.0154 3.55391 11.0423 5.16448 10.7853L11.0095 9.85261C11.6414 9.75178 12.1869 9.35467 12.477 8.78432L15.1623 3.5048Z" fill="#26B8EB"/>
<path d="M48.1623 3.5048C48.9038 2.04709 50.9862 2.04709 51.7277 3.5048L54.413 8.78432C54.7031 9.35467 55.2486 9.75178 55.8805 9.85261L61.7255 10.7853C63.3361 11.0423 63.9784 13.0154 62.8278 14.1713L58.6373 18.3812C58.1874 18.8332 57.98 19.4727 58.079 20.1028L59.0019 25.9733C59.2556 27.5872 57.5721 28.808 56.1169 28.0653L50.8542 25.3791C50.2831 25.0876 49.6069 25.0876 49.0358 25.3791L43.7731 28.0653C42.3179 28.808 40.6344 27.5872 40.8881 25.9733L41.811 20.1028C41.91 19.4727 41.7026 18.8332 41.2527 18.3812L37.0622 14.1713C35.9116 13.0154 36.5539 11.0423 38.1645 10.7853L44.0095 9.85261C44.6414 9.75178 45.1869 9.35467 45.477 8.78432L48.1623 3.5048Z" fill="#26B8EB"/>
<path d="M81.1623 3.5048C81.9038 2.04709 83.9862 2.04709 84.7277 3.5048L87.413 8.78432C87.7031 9.35467 88.2486 9.75178 88.8805 9.85261L94.7255 10.7853C96.3361 11.0423 96.9784 13.0154 95.8278 14.1713L91.6373 18.3812C91.1874 18.8332 90.98 19.4727 91.079 20.1028L92.0019 25.9733C92.2556 27.5872 90.5721 28.808 89.1169 28.0653L83.8542 25.3791C83.2831 25.0876 82.6069 25.0876 82.0358 25.3791L76.7731 28.0653C75.3179 28.808 73.6344 27.5872 73.8881 25.9733L74.811 20.1028C74.91 19.4727 74.7026 18.8332 74.2527 18.3812L70.0622 14.1713C68.9116 13.0154 69.5539 11.0423 71.1645 10.7853L77.0095 9.85261C77.6414 9.75178 78.1869 9.35467 78.477 8.78432L81.1623 3.5048Z" fill="#26B8EB"/>
<path d="M114.162 3.5048C114.904 2.04709 116.986 2.04709 117.728 3.5048L120.413 8.78432C120.703 9.35467 121.249 9.75178 121.88 9.85261L127.726 10.7853C129.336 11.0423 129.978 13.0154 128.828 14.1713L124.637 18.3812C124.187 18.8332 123.98 19.4727 124.079 20.1028L125.002 25.9733C125.256 27.5872 123.572 28.808 122.117 28.0653L116.854 25.3791C116.283 25.0876 115.607 25.0876 115.036 25.3791L109.773 28.0653C108.318 28.808 106.634 27.5872 106.888 25.9733L107.811 20.1028C107.91 19.4727 107.703 18.8332 107.253 18.3812L103.062 14.1713C101.912 13.0154 102.554 11.0423 104.164 10.7853L110.01 9.85261C110.641 9.75178 111.187 9.35467 111.477 8.78432L114.162 3.5048Z" fill="#26B8EB"/>
<path d="M147.162 3.5048C147.904 2.04709 149.986 2.04709 150.728 3.5048L153.413 8.78432C153.703 9.35467 154.249 9.75178 154.88 9.85261L160.726 10.7853C162.336 11.0423 162.978 13.0154 161.828 14.1713L157.637 18.3812C157.187 18.8332 156.98 19.4727 157.079 20.1028L158.002 25.9733C158.256 27.5872 156.572 28.808 155.117 28.0653L149.854 25.3791C149.283 25.0876 148.607 25.0876 148.036 25.3791L142.773 28.0653C141.318 28.808 139.634 27.5872 139.888 25.9733L140.811 20.1028C140.91 19.4727 140.703 18.8332 140.253 18.3812L136.062 14.1713C134.912 13.0154 135.554 11.0423 137.164 10.7853L143.01 9.85261C143.641 9.75178 144.187 9.35467 144.477 8.78432L147.162 3.5048Z" fill="#26B8EB"/>
</svg>
